<?xml version="1.0" encoding="UTF-8"?>
<svg xmlns="http://www.w3.org/2000/svg" xmlns:xlink="http://www.w3.org/1999/xlink" viewBox="0 0 50 50" width="50px" height="50px">
<g id="surface31851673">
<path style=" stroke:none;fill-rule:nonzero;fill:rgb(0%,0%,0%);fill-opacity:1;" d="M 25 2 C 12.308594 2 2 12.308594 2 25 C 2 37.691406 12.308594 48 25 48 C 37.691406 48 48 37.691406 48 25 C 48 12.308594 37.691406 2 25 2 Z M 25 4 C 36.609375 4 46 13.390625 46 25 C 46 36.609375 36.609375 46 25 46 C 13.390625 46 4 36.609375 4 25 C 4 13.390625 13.390625 4 25 4 Z M 11.597656 13 C 10.714844 13 10 13.714844 10 14.597656 L 10 20.398438 C 10 21.285156 10.714844 22 11.597656 22 L 15.5 22 L 15.5 20 L 12.597656 20 C 12.269531 20 12 19.730469 12 19.398438 L 12 15.597656 C 12 15.269531 12.269531 15 12.597656 15 L 16.398438 15 C 16.730469 15 17 15.269531 17 15.597656 L 17 23.398438 C 17 23.730469 16.730469 24 16.398438 24 L 10 24 L 10 26 L 17.398438 26 C 18.285156 26 19 25.285156 19 24.398438 L 19 14.597656 C 19 13.714844 18.285156 13 17.398438 13 Z M 22.097656 13 C 21.21875 13 20.5 13.71875 20.5 14.597656 L 20.5 20.398438 C 20.5 21.28125 21.21875 22 22.097656 22 L 27.898438 22 C 28.78125 22 29.5 21.28125 29.5 20.398438 L 29.5 14.597656 C 29.5 13.71875 28.78125 13 27.898438 13 Z M 32.597656 13 C 31.714844 13 31 13.714844 31 14.597656 L 31 20.398438 C 31 21.285156 31.714844 22 32.597656 22 L 36.5 22 L 36.5 20 L 33.597656 20 C 33.269531 20 33 19.730469 33 19.398438 L 33 15.597656 C 33 15.269531 33.269531 15 33.597656 15 L 37.398438 15 C 37.730469 15 38 15.269531 38 15.597656 L 38 23.398438 C 38 23.730469 37.730469 24 37.398438 24 L 31 24 L 31 26 L 38.398438 26 C 39.285156 26 40 25.285156 40 24.398438 L 40 14.597656 C 40 13.714844 39.285156 13 38.398438 13 Z M 23.097656 15 L 26.898438 15 C 27.230469 15 27.5 15.269531 27.5 15.597656 L 27.5 19.398438 C 27.5 19.730469 27.230469 20 26.898438 20 L 23.097656 20 C 22.769531 20 22.5 19.730469 22.5 19.398438 L 22.5 15.597656 C 22.5 15.269531 22.769531 15 23.097656 15 Z M 11.597656 28 C 10.714844 28 10 28.714844 10 29.597656 L 10 35.398438 C 10 36.285156 10.714844 37 11.597656 37 L 17.5 37 L 17.5 35 L 12.597656 35 C 12.269531 35 12 34.730469 12 34.398438 L 12 30.597656 C 12 30.269531 12.269531 30 12.597656 30 L 17.5 30 L 17.5 28 Z M 20.597656 28 C 19.71875 28 19 28.71875 19 29.597656 L 19 35.398438 C 19 36.28125 19.71875 37 20.597656 37 L 26.398438 37 C 27.28125 37 28 36.28125 28 35.398438 L 28 29.597656 C 28 28.71875 27.28125 28 26.398438 28 Z M 31.097656 28 C 30.214844 28 29.5 28.714844 29.5 29.597656 L 29.5 37 L 31.5 37 L 31.5 30.597656 C 31.5 30.269531 31.769531 30 32.097656 30 L 33.75 30 L 33.75 37 L 35.75 37 L 35.75 30.597656 C 35.75 30.269531 36.019531 30 36.347656 30 L 38 30 L 38 37 L 40 37 L 40 28 Z M 21.597656 30 L 25.398438 30 C 25.730469 30 26 30.269531 26 30.597656 L 26 34.398438 C 26 34.730469 25.730469 35 25.398438 35 L 21.597656 35 C 21.269531 35 21 34.730469 21 34.398438 L 21 30.597656 C 21 30.269531 21.269531 30 21.597656 30 Z M 21.597656 30 "/>
</g>
</svg>
