<svg version="1.1" xmlns="http://www.w3.org/2000/svg" viewBox="-326.65600128173827 -2852.8640197753903 2567.1681884765626 3171.327996826172"><desc>Created with Snap</desc><defs></defs><g><rect x="-326.65600128173827" y="-2852.8640197753903" width="2567.1681884765626" height="3171.327996826172" fill="#225662" style=""></rect><g transform="matrix(19.4693,0,0,19.4693,-56.9714,-2725.7938)"><path d="M89.616,70.471H57.609c-0.464,0-0.907-0.193-1.223-0.534c-0.316-0.34-0.475-0.796-0.44-1.259  c0.063-0.843,0.759-8.234,5.548-8.234h1.426c-0.178-0.095-0.404-0.201-0.69-0.315c-1.987-0.805-3.296-2.048-3.891-3.693  c-1.263-3.497,1.078-7.854,3.341-12.069c1.357-2.527,2.761-5.142,3.106-7.124c0.164-0.942,0.515-2.956,0.463-3.921  c-0.508,0.166-1.558,0.65-3.564,2.048c-3.08,2.146-5.839,3.235-8.2,3.235c-1.973,0-3.68-0.75-4.937-2.17  c-1.288-1.456-3.594-5.656,2.79-13.184c2.946-3.474,3.791-5.025,4.029-5.66c-0.169-0.042-0.362-0.082-0.515-0.115  c-0.215-0.045-0.433-0.092-0.646-0.146c-1.549-0.388-2.542-1.822-2.412-3.492c0.157-2.019,1.969-4.205,5.664-4.537  c0.34-0.031,0.733-0.049,1.173-0.049c2.241,0,10.111,0.576,17.313,7.988c7.721,7.948,12.073,20.856,12.937,38.367  c0.123,2.495-0.797,4.038-1.828,5.047c3.599,1.21,4.167,7.267,4.224,8.025c0.035,0.462-0.125,0.918-0.44,1.259  C90.523,70.277,90.08,70.471,89.616,70.471z M59.551,67.136h28.125c-0.389-1.722-1.112-3.357-1.945-3.357h-2.623  c-0.829,0-1.533-0.61-1.65-1.431c-0.249-1.738,1.137-2.611,2.054-3.188c1.196-0.753,2.141-1.349,2.041-3.388  c-0.822-16.677-4.859-28.859-11.998-36.208c-6.291-6.476-13.011-6.979-14.921-6.979c-0.329,0-0.621,0.014-0.875,0.036  c-1.723,0.154-2.322,0.826-2.5,1.107c-0.109,0.173-0.136,0.311-0.138,0.391c0.141,0.033,0.284,0.063,0.425,0.094  c1.024,0.216,2.573,0.545,3.101,2.09c0.539,1.574-0.068,3.568-4.763,9.104c-3.21,3.786-4.297,7.165-2.835,8.817  c1.625,1.838,4.724,1.201,8.731-1.591c2.747-1.915,4.501-2.732,5.866-2.732c0.866,0,1.629,0.341,2.148,0.959  c1.15,1.366,0.857,3.641,0.279,6.955c-0.438,2.513-1.971,5.367-3.454,8.129c-1.828,3.403-3.9,7.262-3.142,9.357  c0.263,0.728,0.919,1.295,2.006,1.735c0.772,0.312,3.119,1.264,3.3,3.283c0.075,0.839-0.211,2.075-1.996,3.202  c-0.267,0.168-0.575,0.257-0.89,0.257h-2.402C60.615,63.778,59.923,65.488,59.551,67.136z" fill="#f9d1c8" style=""></path><circle cx="59.17" cy="23.766" r="1.562" fill="#f9d1c8" style=""></circle><path fill="#f9d1c8" d="M43.584,83.578c-0.311,0-0.64,0-0.97,0c-0.253-11.844-5.258-11.022-5.843-27.697h3.949  c0.489,0,0.885-0.396,0.885-0.885v-2.01c0-0.488-0.396-0.884-0.885-0.884h-0.368v-5.767v-3.488v-4.741  c0-0.488-0.396-0.885-0.885-0.885h-2.875c-0.489,0-0.885,0.396-0.885,0.885v3.854h-3.146v-3.854c0-0.488-0.396-0.885-0.884-0.885  h-2.875c-0.489,0-0.885,0.396-0.885,0.885v3.854h-3.267v-3.854c0-0.488-0.396-0.885-0.885-0.885h-2.875  c-0.488,0-0.885,0.396-0.885,0.885v4.741v3.488v5.767h-0.221c-0.489,0-0.885,0.396-0.885,0.884v2.01  c0,0.489,0.396,0.885,0.885,0.885h3.894c-0.584,16.676-5.59,15.854-5.843,27.697c-0.242,0-0.489,0-0.72,0  c-3.692,0-4.243,5.672-4.243,5.672h15.066h4.826h15.065C47.828,89.25,47.277,83.578,43.584,83.578z" style=""></path><desc>Created with Snap</desc><defs></defs></g><g><g transform="matrix(1.024,0,0,-1.024,0,0)"><path d="M361 665L372 665L536 211Q546 181 553 161Q561 141 566 127Q572 113 576 103Q580 94 583 87Q594 62 605 48Q617 35 629 28Q641 22 653 21Q666 20 679 20L684 16L687 -2L685 -6Q678 -6 664 -5Q650 -4 635 -3Q620 -2 606 -1Q593 0 586 0L553 0Q546 0 530 -1Q514 -2 496 -3Q479 -4 463 -5Q447 -6 440 -6L438 -2L441 16L445 20Q474 20 490 26Q506 33 506 62Q506 85 490 126Q475 168 452 231L435 279L211 279L194 231Q171 168 155 126Q140 85 140 62Q140 33 156 26Q172 20 201 20L206 16L209 -2L207 -6Q200 -6 185 -5Q170 -4 153 -3Q137 -2 122 -1Q107 0 100 0L81 0Q74 0 60 -1Q46 -2 31 -3Q16 -4 2 -5Q-11 -6 -18 -6L-19 -2L-17 16L-12 20Q1 20 13 21Q25 22 37 28Q49 35 60 48Q72 62 84 87Q87 92 89 98Q92 105 97 118Q103 131 111 152Q120 174 133 208Q147 243 166 293Q186 343 214 414Q227 449 241 483Q255 518 267 548Q279 578 288 601Q298 624 302 635L361 665ZM324 579L228 322L419 322L324 579ZM1286 30L1282 25Q1234 10 1181 -1Q1129 -11 1072 -11Q985 -11 920 15Q856 42 813 88Q771 134 750 195Q729 256 729 324Q729 396 751 458Q774 520 818 566Q862 612 927 638Q992 665 1078 665Q1096 665 1121 663Q1147 662 1175 658Q1203 654 1232 647Q1261 641 1287 631L1289 622L1272 525L1244 525L1240 528Q1233 568 1193 590Q1154 612 1073 612Q960 612 901 565Q877 546 860 520Q843 494 831 463Q820 432 814 397Q809 363 809 329Q809 262 828 209Q848 156 882 119Q916 83 963 63Q1010 44 1065 44Q1082 44 1103 45Q1125 47 1145 50Q1166 53 1182 57Q1198 61 1204 65Q1212 70 1212 86Q1212 93 1212 105Q1212 117 1212 130Q1212 144 1211 157Q1211 171 1210 181Q1208 207 1199 220Q1191 234 1185 238Q1176 245 1158 246Q1140 248 1124 248L1119 252L1116 274L1118 278Q1125 278 1140 277Q1156 276 1172 275Q1189 274 1204 273Q1220 272 1227 272L1257 272Q1264 272 1276 273Q1288 274 1301 275Q1314 276 1326 277Q1338 278 1345 278L1347 274L1345 250L1340 246Q1311 246 1299 229Q1288 213 1286 181Q1284 156 1283 127Q1283 99 1283 85Q1283 70 1283 52Q1284 35 1286 30ZM1521 508Q1521 480 1531 461Q1541 443 1561 429Q1582 415 1613 403Q1645 392 1688 379Q1725 367 1761 352Q1797 337 1825 313Q1854 290 1871 256Q1888 223 1888 175Q1888 124 1868 88Q1848 53 1815 31Q1782 9 1738 -1Q1695 -11 1647 -11Q1585 -11 1534 3Q1483 17 1442 38L1438 51L1455 158L1480 158L1485 152Q1490 91 1534 62Q1578 34 1654 34Q1732 34 1771 69Q1811 105 1811 162Q1811 197 1796 220Q1781 244 1756 260Q1732 277 1700 288Q1669 299 1637 310Q1597 323 1562 338Q1528 354 1502 375Q1477 396 1462 425Q1448 454 1448 494Q1448 541 1464 573Q1481 606 1510 626Q1539 647 1577 656Q1616 665 1661 665Q1715 665 1763 655Q1811 645 1841 631L1845 620L1831 531L1803 531L1798 536Q1796 562 1781 578Q1766 594 1745 603Q1725 612 1701 615Q1678 618 1660 618Q1595 618 1558 589Q1521 561 1521 508Z" fill="#ffffff" style=""></path></g></g></g></svg>